<?xml version="1.0" encoding="utf-8"?>
<!-- Generator: Adobe Illustrator 16.0.0, SVG Export Plug-In . SVG Version: 6.00 Build 0)  -->
<!DOCTYPE svg PUBLIC "-//W3C//DTD SVG 1.1//EN" "http://www.w3.org/Graphics/SVG/1.1/DTD/svg11.dtd">
<svg version="1.1" id="Layer_2" xmlns="http://www.w3.org/2000/svg" xmlns:xlink="http://www.w3.org/1999/xlink" x="0px" y="0px"
	 width="624px" height="94px" viewBox="0 0 624 94" enable-background="new 0 0 624 94" xml:space="preserve">
<path opacity="0.76" fill="#B2B8BB" enable-background="new    " d="M624,94c-4,0-6.597-0.176-14.732-0.176H14.733
	c-8.137,0-10.733,0-14.733,0V11.978C0,5.362,6.596,0,14.733,0h594.533C617.403,0,624,5.362,624,11.978V94z"/>
<path fill="#A5B7BF" d="M595.732,38.601c0.795,0.775,8.554,8.922,8.554,8.922c0.425,0.414,0.637,0.955,0.637,1.498
	c0,0.541-0.212,1.082-0.637,1.496c0,0-7.759,8.146-8.554,8.922c-0.795,0.774-2.222,0.83-3.07,0c-0.85-0.826-0.915-1.979,0-2.992
	l7.12-7.426l-7.118-7.426c-0.914-1.014-0.849-2.168,0-2.995C593.512,37.774,594.94,37.826,595.732,38.601z"/>
<circle fill="#00A0FF" stroke="#FFFFFF" stroke-width="3" stroke-miterlimit="10" cx="44.5" cy="47.5" r="23"/>
<g>
	<path fill-rule="evenodd" clip-rule="evenodd" fill="#FFFFFF" d="M61.723,43.55l-2.185,1.422l-1.066-3.12h3.251V43.55L61.723,43.55
		z M60.197,53.51v-1.829H59.34v-4.724c0-1.682-1.309-5.271-3.909-10.766c-2.999-0.529-6.735-0.789-11.199-0.789
		c-4.473,0-8.2,0.26-11.173,0.789c-2.626,5.495-3.944,9.084-3.944,10.766v4.724h-0.858v1.829h0.858v1.292h1.448V59.5h5.366v-3.095
		c1.049-0.018,1.647-0.555,1.803-1.604h13.002c0.147,1.049,0.763,1.586,1.828,1.604V59.5h5.357v-4.698h1.422V53.51H60.197
		L60.197,53.51z M30.007,41.852l-1.066,3.12l-2.185-1.422v-1.698H30.007L30.007,41.852z M58.472,51.014h-4.75v-3.347h4.75V51.014
		L58.472,51.014z M57.562,43.828c-4.064-0.183-8.512-0.278-13.331-0.278c-4.811,0-9.258,0.096-13.332,0.278
		c0.416-1.475,0.806-2.602,1.161-3.398c0.798-1.612,1.387-2.766,1.777-3.459c2.375-0.338,5.833-0.503,10.393-0.503
		c4.567,0,8.035,0.165,10.41,0.503c0.815,1.439,1.404,2.592,1.776,3.459C56.973,41.981,57.354,43.116,57.562,43.828L57.562,43.828z
		 M54.078,54.576c0,0.996-0.494,1.491-1.49,1.491c-1.006,0-1.5-0.495-1.5-1.491c0-1.006,0.494-1.5,1.5-1.5
		C53.584,53.076,54.078,53.57,54.078,54.576L54.078,54.576z M52.56,48.785H35.927v-1.118H52.56V48.785L52.56,48.785z M52.56,51.014
		H35.927v-1.093H52.56V51.014L52.56,51.014z M59.869,53.25h-5.912c-0.373-0.391-0.832-0.581-1.369-0.581
		c-0.547,0-0.998,0.19-1.353,0.581H37.244c-0.373-0.391-0.832-0.581-1.37-0.581c-0.546,0-0.988,0.19-1.352,0.581h-5.938v-1.188
		h31.284V53.25L59.869,53.25z M34.757,51.014h-4.75v-3.347h4.75V51.014L34.757,51.014z M37.375,54.576
		c0,0.996-0.503,1.491-1.5,1.491c-0.997,0-1.5-0.495-1.5-1.491c0-1.006,0.503-1.5,1.5-1.5C36.872,53.076,37.375,53.57,37.375,54.576
		z"/>
</g>
</svg>
