<?xml version="1.0" encoding="utf-8"?>
<!-- Generator: Adobe Illustrator 16.0.0, SVG Export Plug-In . SVG Version: 6.00 Build 0)  -->
<!DOCTYPE svg PUBLIC "-//W3C//DTD SVG 1.1//EN" "http://www.w3.org/Graphics/SVG/1.1/DTD/svg11.dtd">
<svg version="1.1" xmlns="http://www.w3.org/2000/svg" xmlns:xlink="http://www.w3.org/1999/xlink" x="0px" y="0px" width="624px"
	 height="94px" viewBox="0 0 624 94" enable-background="new 0 0 624 94" xml:space="preserve">
<g id="Layer_2">
	<path opacity="0.76" fill="#FFFFFF" d="M624,94c-4,0-6.597-0.176-14.733-0.176H14.733c-8.137,0-10.733,0-14.733,0V0
		c6.596,0,6.596,0,14.733,0h594.533C617.403,0,620.5,0,624,0V94z"/>
	<path fill="#A5B7BF" d="M595.732,38.601c0.795,0.775,8.554,8.922,8.554,8.922c0.424,0.414,0.636,0.956,0.636,1.498
		c0,0.541-0.212,1.083-0.636,1.497c0,0-7.759,8.147-8.554,8.921c-0.795,0.775-2.221,0.83-3.07,0c-0.85-0.826-0.915-1.979,0-2.992
		l7.12-7.426l-7.118-7.426c-0.914-1.014-0.849-2.168,0-2.995C593.512,37.774,594.94,37.826,595.732,38.601z"/>
</g>
<g id="Layer_3">
	<g>
		<path fill="#7D7D7D" d="M39.849,24.062c2.176,0,3.94,1.76,3.94,3.938c0,2.173-1.764,3.937-3.94,3.937
			c-2.175,0-3.939-1.764-3.939-3.937C35.91,25.821,37.674,24.062,39.849,24.062z"/>
		<path fill="#7D7D7D" d="M67.171,28.333h-9.163c-1.891,0-4.331,0.777-5.779,2.23l-8.478,8.469v-2.481c0-5.289-7.797-5.231-7.797,0
			v10.12h0.01l-7.366,7.376c-0.696,0.692-0.781,0.724-2.149,0.724h-4.502c-4.532,0-7.252,4.07-7.252,7.528
			c0,3.455,2.721,7.817,7.653,7.817c0,0,6.133,0,8.03,0c1.895,0,4.186-0.725,6.082-2.507l23.496-23.427
			c0.501-0.447,0.781-0.584,1.644-0.584c0,0,3.24,0,5.801,0c2.793,0,6.746-3.166,6.746-7.729
			C74.146,31.356,70.164,28.345,67.171,28.333z M30.836,57.421l24.077-24.074c0.992-0.988,1.971-1.117,3.655-1.117h8.241
			c2.008,0,3.357,2.242,3.357,3.582c0,1.338-0.959,3.834-3.409,3.834h-4.962c-2.093,0-3.024,0.293-4.231,1.502L33.886,64.822
			c-0.957,0.959-2.168,1.338-3.729,1.338h-7.809c-2.004,0-3.774-1.692-3.774-3.924c0-2.229,1.688-3.479,3.431-3.479"/>
	</g>
</g>
</svg>
