<?xml version="1.0" encoding="utf-8"?>
<!-- Generator: Adobe Illustrator 16.0.0, SVG Export Plug-In . SVG Version: 6.00 Build 0)  -->
<!DOCTYPE svg PUBLIC "-//W3C//DTD SVG 1.1//EN" "http://www.w3.org/Graphics/SVG/1.1/DTD/svg11.dtd">
<svg version="1.1" id="Layer_2" xmlns="http://www.w3.org/2000/svg" xmlns:xlink="http://www.w3.org/1999/xlink" x="0px" y="0px"
	 width="624px" height="94px" viewBox="0 0 624 94" enable-background="new 0 0 624 94" xml:space="preserve">
<path opacity="0.76" fill="#FFFFFF" d="M624,94c-4,0-6.597-0.176-14.733-0.176H14.733c-8.137,0-10.733,0-14.733,0V11.978
	C0,5.362,6.596,0,14.733,0h594.533C617.403,0,624,5.362,624,11.978V94z"/>
<path fill="#7E7E7E" d="M68.591,39.975l-4.547-6.059c-0.177-0.239-0.388-0.444-0.606-0.642v-7.243c0-1.673-1.358-3.031-3.031-3.031
	H30.094c-1.675,0-3.031,1.358-3.031,3.031v7.245c-0.218,0.195-0.429,0.399-0.606,0.636l-4.545,6.061
	C21.323,40.755,21,41.724,21,42.703v1.516c0,2.506,2.041,4.547,4.547,4.547l0,0v19.703c0,1.673,1.358,3.031,3.031,3.031h33.344
	c1.673,0,3.031-1.358,3.031-3.031V48.766c2.508,0,4.547-2.041,4.547-4.547v-1.516C69.5,41.724,69.178,40.755,68.591,39.975z
	 M60.406,26.031v6.063H30.094v-6.063H60.406z M36.449,45.734H30.1l6.063-10.609h3.317L36.449,45.734z M41.058,35.125h3.435v10.609
	h-6.466L41.058,35.125z M46.008,35.125h3.434l3.031,10.609h-6.465V35.125z M51.017,35.125h3.318l6.063,10.609h-6.35L51.017,35.125z
	 M24.031,44.219v-1.516c0-0.329,0.106-0.647,0.303-0.91l4.547-6.063c0.287-0.382,0.735-0.606,1.212-0.606h4.323l-6.063,10.609
	h-2.807C24.71,45.734,24.031,45.057,24.031,44.219z M51.313,68.469H39.945V53.313h11.367V68.469z M61.922,68.469h-9.094V53.313
	c0-0.838-0.681-1.516-1.516-1.516H39.945c-0.836,0-1.516,0.678-1.516,1.516v15.156h-9.852V48.766h33.344V68.469z M66.469,44.219
	c0,0.838-0.678,1.516-1.516,1.516h-2.81l-6.063-10.609h4.325c0.477,0,0.927,0.224,1.211,0.606l4.547,6.063
	c0.198,0.263,0.305,0.581,0.305,0.91V44.219z"/>
<path fill="#A5B7BF" d="M595.732,38.601c0.795,0.775,8.554,8.922,8.554,8.922c0.424,0.414,0.636,0.956,0.636,1.498
	c0,0.541-0.212,1.083-0.636,1.497c0,0-7.759,8.147-8.554,8.921c-0.795,0.775-2.221,0.83-3.07,0c-0.85-0.826-0.915-1.979,0-2.992
	l7.12-7.426l-7.118-7.426c-0.914-1.014-0.849-2.168,0-2.995C593.512,37.774,594.94,37.826,595.732,38.601z"/>
</svg>
