<?xml version="1.0" encoding="utf-8"?>
<!-- Generator: Adobe Illustrator 16.0.0, SVG Export Plug-In . SVG Version: 6.00 Build 0)  -->
<!DOCTYPE svg PUBLIC "-//W3C//DTD SVG 1.1//EN" "http://www.w3.org/Graphics/SVG/1.1/DTD/svg11.dtd">
<svg version="1.1" xmlns="http://www.w3.org/2000/svg" xmlns:xlink="http://www.w3.org/1999/xlink" x="0px" y="0px" width="330px"
	 height="55.667px" viewBox="0 0 330 55.667" enable-background="new 0 0 330 55.667" xml:space="preserve">
<g id="Layer_2">
	<path opacity="0.5" fill="#FFFFFF" d="M330,43.503c0,7.085-5.373,12.83-12,12.83H12c-6.627,0-12-5.745-12-12.83V12.497
		c0-7.086,5.373-12.83,12-12.83h306c6.627,0,12,5.744,12,12.83V43.503z"/>
</g>
<g id="Layer_1">
	<path fill="#4997D2" d="M330,42.667c0,6.627-5.373,12-12,12H12c-6.627,0-12-5.373-12-12v-29c0-6.627,5.373-12,12-12h306
		c6.627,0,12,5.373,12,12V42.667z"/>
</g>
</svg>
