<?xml version="1.0" encoding="utf-8"?>
<!-- Generator: Adobe Illustrator 16.0.0, SVG Export Plug-In . SVG Version: 6.00 Build 0)  -->
<!DOCTYPE svg PUBLIC "-//W3C//DTD SVG 1.1//EN" "http://www.w3.org/Graphics/SVG/1.1/DTD/svg11.dtd">
<svg version="1.1" id="Layer_1" xmlns="http://www.w3.org/2000/svg" xmlns:xlink="http://www.w3.org/1999/xlink" x="0px" y="0px"
	 width="32.25px" height="32px" viewBox="-0.25 0 32.25 32" enable-background="new -0.25 0 32.25 32" xml:space="preserve">
<g id="Layer_2">
	<rect x="32.25" opacity="0.76" fill="#C8C8C8" enable-background="new    " width="31.75" height="32"/>
</g>
<g id="Layer_1_1_">
	<path fill="#FFFFFF" d="M32.002,19.002v-6.006l-4.587-0.764c-0.187-0.567-0.413-1.115-0.679-1.641l2.703-3.782l-4.248-4.247
		l-3.775,2.697c-0.527-0.267-1.079-0.497-1.648-0.684L19.004,0h-6.006l-0.763,4.575c-0.57,0.188-1.121,0.417-1.649,0.684L6.81,2.562
		L2.563,6.809l2.702,3.782C5,11.117,4.773,11.665,4.587,12.232L0,12.996v6.006l4.597,0.768c0.186,0.561,0.413,1.104,0.676,1.625
		l-2.711,3.795l4.247,4.248l3.802-2.715c0.519,0.26,1.059,0.483,1.618,0.67l0.768,4.606h6.006l0.769-4.608
		c0.559-0.186,1.099-0.408,1.617-0.67l3.803,2.715l4.246-4.246l-2.711-3.795c0.264-0.521,0.49-1.064,0.676-1.627L32,19.001
		L32.002,19.002z M16.002,19.999c-2.209,0-4-1.791-4-4s1.791-4,4-4s4,1.791,4,4S18.211,19.999,16.002,19.999z"/>
	<path fill="#FFFFFF" d="M64,19.002v-6.006l-4.586-0.764c-0.188-0.567-0.414-1.115-0.68-1.641l2.703-3.782l-4.248-4.247
		l-3.775,2.697c-0.527-0.267-1.078-0.497-1.648-0.684L51.002,0h-6.006l-0.764,4.575c-0.568,0.188-1.121,0.417-1.648,0.684
		l-3.775-2.697l-4.246,4.247l2.701,3.782c-0.266,0.526-0.492,1.074-0.678,1.641l-4.588,0.764v6.006l4.598,0.768
		c0.187,0.561,0.412,1.104,0.676,1.625l-2.711,3.795l4.248,4.248l3.801-2.715c0.521,0.26,1.06,0.483,1.619,0.67l0.769,4.606h6.006
		l0.769-4.608c0.559-0.186,1.1-0.408,1.617-0.67l3.803,2.715l4.246-4.246l-2.711-3.795c0.264-0.521,0.489-1.064,0.676-1.627
		L64,19.002L64,19.002z M48,19.999c-2.209,0-4-1.791-4-4s1.791-4,4-4s4,1.791,4,4S50.209,19.999,48,19.999z"/>
</g>
</svg>
