<?xml version="1.0" encoding="utf-8"?>
<!-- Generator: Adobe Illustrator 16.0.0, SVG Export Plug-In . SVG Version: 6.00 Build 0)  -->
<!DOCTYPE svg PUBLIC "-//W3C//DTD SVG 1.1//EN" "http://www.w3.org/Graphics/SVG/1.1/DTD/svg11.dtd">
<svg version="1.1" id="Layer_2" xmlns="http://www.w3.org/2000/svg" xmlns:xlink="http://www.w3.org/1999/xlink" x="0px" y="0px"
	 width="624px" height="94px" viewBox="0 0 624 94" enable-background="new 0 0 624 94" xml:space="preserve">
<path opacity="0.76" fill="#B2B8BB" enable-background="new    " d="M624,94c-4,0-6.597-0.176-14.732-0.176H14.733
	c-8.137,0-10.733,0-14.733,0V11.978C0,5.362,6.596,0,14.733,0h594.533C617.403,0,624,5.362,624,11.978V94z"/>
<path fill="#A5B7BF" d="M595.732,38.601c0.795,0.775,8.554,8.922,8.554,8.922c0.425,0.414,0.637,0.955,0.637,1.498
	c0,0.541-0.212,1.082-0.637,1.496c0,0-7.759,8.146-8.554,8.922c-0.795,0.774-2.222,0.83-3.07,0c-0.85-0.826-0.915-1.979,0-2.992
	l7.12-7.426l-7.118-7.426c-0.914-1.014-0.849-2.168,0-2.995C593.512,37.774,594.94,37.826,595.732,38.601z"/>
<path fill="#7D7D7D" d="M55.334,31H32.668c-3.117,0-5.667,2.55-5.667,5.667v22.665c0,3.119,2.55,5.667,5.667,5.667h22.666
	c3.117,0,5.666-2.548,5.666-5.667V36.667C61,33.55,58.451,31,55.334,31z M55.906,48h-5.531v14.875H44V48h-3.072v-4.866H44v-3.16
	c0-4.295,1.852-6.848,6.902-6.848h5.818v5.265h-4.752c-1.41-0.002-1.586,0.736-1.586,2.109l-0.008,2.635h6.375L55.906,48L55.906,48z
	"/>
</svg>
