<?xml version="1.0" encoding="utf-8"?>
<!-- Generator: Adobe Illustrator 16.0.0, SVG Export Plug-In . SVG Version: 6.00 Build 0)  -->
<!DOCTYPE svg PUBLIC "-//W3C//DTD SVG 1.1//EN" "http://www.w3.org/Graphics/SVG/1.1/DTD/svg11.dtd">
<svg version="1.1" id="Layer_2" xmlns="http://www.w3.org/2000/svg" xmlns:xlink="http://www.w3.org/1999/xlink" x="0px" y="0px"
	 width="624px" height="94px" viewBox="0 0 624 94" enable-background="new 0 0 624 94" xml:space="preserve">
<path fill="#FFFFFF" enable-background="new    " d="M0,0c4,0,6.598,0.176,14.732,0.176h594.534c8.138,0,10.732,0,14.732,0v81.846
	C624,88.639,617.403,94,609.266,94H14.733C6.596,94,0,88.639,0,82.021V0z"/>
<path fill="#A5B7BF" d="M595.732,38.601c0.795,0.775,8.554,8.922,8.554,8.922c0.426,0.414,0.638,0.955,0.638,1.498
	c0,0.541-0.212,1.082-0.638,1.496c0,0-7.759,8.146-8.554,8.922c-0.796,0.773-2.222,0.83-3.07,0c-0.85-0.826-0.915-1.979,0-2.992
	l7.12-7.426l-7.118-7.426c-0.914-1.014-0.849-2.168,0-2.995C593.512,37.774,594.94,37.826,595.732,38.601z"/>
<path fill="#7D7D7D" d="M32.027,57.875c-0.008-0.084-0.015-0.168-0.019-0.253C32.012,57.707,32.019,57.791,32.027,57.875z
	 M39.833,47.765c3.055,0.09,5.104-3.079,4.577-7.08c-0.528-4-3.433-7.211-6.488-7.302c-3.056-0.091-5.105,2.971-4.577,6.973
	C33.872,44.356,36.777,47.673,39.833,47.765z M66,37.499v-2.833c0-3.117-2.549-5.667-5.666-5.667H37.668
	c-3.064,0-5.579,2.465-5.663,5.509c1.938-1.706,4.626-3.132,7.4-3.132c2.965,0,11.863,0,11.863,0l-2.656,2.245h-3.761
	c2.495,0.956,3.824,3.856,3.824,6.831c0,2.498-1.388,4.647-3.35,6.175c-1.914,1.491-2.277,2.115-2.277,3.384
	c0,1.082,2.05,2.922,3.122,3.678c3.134,2.209,4.148,4.261,4.148,7.686c0,0.545-0.068,1.09-0.201,1.626h10.218
	c3.117,0,5.666-2.548,5.666-5.667V39.626h-6.375v6.375h-2.125v-6.375h-6.375v-2.125h6.375v-6.375h2.125v6.375h6.375L66,37.499z
	 M38.172,54.431c0.718,0,1.375-0.021,2.056-0.021c-0.901-0.874-1.615-1.946-1.615-3.267c0-0.785,0.251-1.539,0.602-2.209
	c-0.358,0.025-0.723,0.033-1.1,0.033c-2.469,0-4.566-0.8-6.116-2.121v2.233v6.698c1.774-0.842,3.881-1.35,6.172-1.35L38.172,54.431z
	 M32.114,58.459c-0.037-0.181-0.065-0.364-0.084-0.552C32.049,58.095,32.077,58.278,32.114,58.459z M47.122,60.636
	c-0.5-1.953-2.273-2.921-4.744-4.634c-0.899-0.29-1.889-0.461-2.952-0.472c-2.976-0.032-5.748,1.16-7.312,2.934
	c0.529,2.58,2.823,4.534,5.553,4.534h9.511c0.06-0.369,0.09-0.751,0.09-1.144C47.268,61.438,47.217,61.032,47.122,60.636
	L47.122,60.636z"/>
</svg>
