<?xml version="1.0" encoding="utf-8"?>
<!-- Generator: Adobe Illustrator 16.0.0, SVG Export Plug-In . SVG Version: 6.00 Build 0)  -->
<!DOCTYPE svg PUBLIC "-//W3C//DTD SVG 1.1//EN" "http://www.w3.org/Graphics/SVG/1.1/DTD/svg11.dtd">
<svg version="1.1" id="Layer_2" xmlns="http://www.w3.org/2000/svg" xmlns:xlink="http://www.w3.org/1999/xlink" x="0px" y="0px"
	 width="624px" height="94px" viewBox="0 0 624 94" enable-background="new 0 0 624 94" xml:space="preserve">
<path opacity="0.76" fill="#FFFFFF" enable-background="new    " d="M0,0c4,0,6.597,0.176,14.732,0.176h594.534
	c8.137,0,10.733,0,14.733,0v81.846C624,88.639,617.403,94,609.266,94H14.733C6.596,94,0,88.639,0,82.021V0z"/>
<path fill="#A5B7BF" d="M595.732,38.601c0.795,0.775,8.554,8.922,8.554,8.922c0.425,0.414,0.637,0.955,0.637,1.498
	c0,0.541-0.212,1.082-0.637,1.496c0,0-7.759,8.147-8.554,8.922s-2.221,0.83-3.07,0c-0.85-0.826-0.915-1.979,0-2.992l7.12-7.426
	l-7.118-7.426c-0.914-1.014-0.849-2.168,0-2.995C593.512,37.774,594.94,37.826,595.732,38.601z"/>
<path fill="#7E7E7E" d="M60.328,23.5c-2.982,0-5.327,2.049-7.01,5.211l-0.031-0.017c-2.444,4.785-6.082,7.884-10.068,7.884H29.812
	c-3.259,0-5.812,3.193-5.812,7.266c0,4.076,2.553,7.266,5.812,7.266c1.603,0.007,2.899,1.304,2.899,2.906v13.078
	C32.712,68.7,34.014,70,35.618,70h5.812c1.604,0,2.906-1.3,2.906-2.906v-1.453c0-1.453-1.453-2.104-1.453-2.906V52.563
	c0-0.035,0.023-0.058,0.026-0.092c0.014-0.207,0.07-0.398,0.162-0.572c0.026-0.049,0.054-0.086,0.086-0.129
	c0.116-0.172,0.264-0.314,0.441-0.426c0.009-0.005,0.012-0.014,0.021-0.02c0.006,0,0.01-0.006,0.017-0.006
	c0.115-0.065,0.255-0.082,0.386-0.116c3.668,0.389,6.988,3.349,9.267,7.808l0.037-0.019c1.684,3.151,4.021,5.194,7.002,5.194
	c6.678,0,10.172-10.233,10.172-20.344C70.5,33.732,67.006,23.5,60.328,23.5z M53.062,43.844c0-1.507,0.088-2.963,0.237-4.359h4.121
	c1.604,0,2.906,1.953,2.906,4.359c0,2.41-1.304,4.359-2.906,4.359H53.3C53.15,46.807,53.062,45.354,53.062,43.844z M26.906,43.844
	c0-2.407,1.302-4.359,2.906-4.359h10.192c-0.901,1.06-1.474,2.597-1.474,4.359c0,1.766,0.573,3.303,1.474,4.359H29.812
	C28.208,48.203,26.906,46.253,26.906,43.844z M41.431,67.094h-5.812V54.016c0-1.059-0.284-2.049-0.781-2.906h1.014v0.018h4.371
	c-0.155,0.453-0.245,0.932-0.245,1.436v10.172c0,1.399,0.781,2.33,1.248,2.888c0.063,0.075,0.14,0.153,0.205,0.241V67.094z
	 M43.219,48.221h-0.328v-0.018c-1.604,0-2.906-1.95-2.906-4.359c0-2.407,1.302-4.359,2.906-4.359h0.328
	c2.74,0,5.306-1.079,7.564-2.933c-0.414,2.339-0.627,4.817-0.627,7.292c0,2.483,0.213,4.971,0.63,7.311
	C48.527,49.299,45.959,48.221,43.219,48.221z M60.328,61.281c-2.932,0-5.449-4.172-6.6-10.172h3.692c3.259,0,5.812-3.19,5.812-7.267
	c0-4.073-2.555-7.266-5.812-7.266h-3.692c1.149-5.997,3.668-10.172,6.6-10.172c4.013,0,7.266,7.808,7.266,17.438
	S64.341,61.281,60.328,61.281z"/>
</svg>
