<?xml version="1.0" encoding="utf-8"?>
<!-- Generator: Adobe Illustrator 16.0.0, SVG Export Plug-In . SVG Version: 6.00 Build 0)  -->
<!DOCTYPE svg PUBLIC "-//W3C//DTD SVG 1.1//EN" "http://www.w3.org/Graphics/SVG/1.1/DTD/svg11.dtd">
<svg version="1.1" id="Layer_2" xmlns="http://www.w3.org/2000/svg" xmlns:xlink="http://www.w3.org/1999/xlink" x="0px" y="0px"
	 width="624px" height="94px" viewBox="0 0 624 94" enable-background="new 0 0 624 94" xml:space="preserve">
<path opacity="0.76" fill="#B2B8BB" enable-background="new    " d="M0,0c4,0,6.598,0.176,14.732,0.176h594.534
	c8.138,0,10.732,0,14.732,0v81.846C624,88.639,617.403,94,609.266,94H14.733C6.596,94,0,88.639,0,82.021V0z"/>
<path fill="#A5B7BF" d="M595.732,38.601c0.795,0.775,8.554,8.922,8.554,8.922c0.426,0.414,0.638,0.955,0.638,1.498
	c0,0.541-0.212,1.082-0.638,1.496c0,0-7.759,8.146-8.554,8.922c-0.796,0.773-2.222,0.83-3.07,0c-0.85-0.826-0.915-1.979,0-2.992
	l7.12-7.426l-7.118-7.426c-0.914-1.014-0.849-2.168,0-2.995C593.512,37.774,594.94,37.826,595.732,38.601z"/>
<circle fill="#00A0FF" stroke="#FFFFFF" stroke-width="3" stroke-miterlimit="10" cx="48.5" cy="46.499" r="23"/>
<path fill-rule="evenodd" clip-rule="evenodd" fill="#FFFFFF" d="M31.668,49.758c0.049-2.469,2.263-5.464,5.204-5.877
	c1.443-0.33,2.858,0.075,2.858,0.075l1.265-3.399l-0.926-1.52c0,0-1.69,0.283-1.805,0.217c-0.688-0.409-0.898-1.221-0.81-1.6
	c0.133-0.552,0.871-1.133,0.962-1.124l5.139,0.418l0.035,0.828l-2.006,0.881l0.988,1.53l10.617,0.005l-0.783-2.515
	c0.017-0.425,0.423-0.852,0.78-0.946c-0.75-0.014-1.497-0.029-2.246-0.045l-0.147-0.082L50.7,36.4l-0.054-0.25l0.025-0.278
	l0.076-0.201l0.159-0.118l0.195-0.026l5.296,0.241l0.166,0.207l0.059,0.315l-0.115,0.314l-0.268,0.126h-1.367
	c-0.453,0.12-0.915,0.472-0.967,1.124c0.697,2.132,1.391,4.264,2.088,6.395c-0.026-0.085,2.861-1.504,5.807,0.269
	c2.256,1.356,2.944,3.198,3.127,4.921c0.057,0.55-0.012,1.108-0.099,1.661c-0.16,1.037-0.757,2.488-1.929,3.554
	c-1.454,1.325-3.877,1.949-5.574,1.509c-0.298-0.076-0.582-0.117-0.85-0.215c-2.585-0.93-3.736-2.77-4.143-5.216
	c-0.226-1.349,0.201-2.899,0.874-4.001c0.677-1.102,1.517-1.785,1.517-1.785l-0.648-2.025l-6.101,8.089l-3.731-0.004
	c-0.022,0,0.057,0.611-0.93,2.453c-0.987,1.84-4.174,3.82-7.385,2.662C32.719,54.963,31.619,52.226,31.668,49.758L31.668,49.758z
	 M41.941,42.088l4.816,7.451l-2.491,0.037c0,0,0-0.969-0.368-1.92c-0.517-1.337-1.736-2.605-2.906-3.155L41.941,42.088
	L41.941,42.088z M40.439,46.047c0.026-0.07,0.896,0.479,1.45,1.144c0.62,0.793,0.914,2.337,0.914,2.337l-3.657-0.025L40.439,46.047
	L40.439,46.047z M43.443,41.467h9.908L47.97,48.66C47.97,48.66,43.264,41.467,43.443,41.467L43.443,41.467z M56.449,45.714
	c0,0,0.059,0.264,0.319,0.849c0.304,0.561,1.668,2.947,2.279,3.642c0.17,0.19,0.004,0.495-0.232,0.664
	c-0.173,0.124-0.382,0.144-0.538,0.143c-0.26-0.007-0.405-0.23-0.414-0.233c-0.117-0.025-1.584-2.119-2.133-3.21
	c-0.094-0.185-0.385-0.872-0.385-0.911c-0.003-0.174-1.674,1.479-1.392,3.801c0.285,2.32,1.751,3.805,3.852,4.205
	c2.102,0.395,4.185-0.875,5.06-2.555c0.874-1.682,0.731-4.564-1.635-6.119C58.867,44.436,56.449,45.714,56.449,45.714L56.449,45.714
	z M36.643,45.542c1.378-0.409,2.544-0.123,2.544-0.123l-1.556,4.179l-0.1,0.33l0.031,0.415l0.192,0.382l0.32,0.25l4.6,0.078
	c0.047,0.002,0.056,0.28-0.175,0.816c-1.385,3.232-5.375,3.924-7.743,1.734C32.04,51.092,33.344,46.522,36.643,45.542z"/>
</svg>
