<?xml version="1.0" encoding="utf-8"?>
<!-- Generator: Adobe Illustrator 16.0.0, SVG Export Plug-In . SVG Version: 6.00 Build 0)  -->
<!DOCTYPE svg PUBLIC "-//W3C//DTD SVG 1.1//EN" "http://www.w3.org/Graphics/SVG/1.1/DTD/svg11.dtd">
<svg version="1.1" xmlns="http://www.w3.org/2000/svg" xmlns:xlink="http://www.w3.org/1999/xlink" x="0px" y="0px" width="624px"
	 height="94px" viewBox="0 0 624 94" enable-background="new 0 0 624 94" xml:space="preserve">
<g id="Layer_2">
	<path opacity="0.76" fill="#FFFFFF" d="M624,94c-4,0-6.597-0.176-14.733-0.176H14.733c-8.137,0-10.733,0-14.733,0V0
		c6.596,0,6.596,0,14.733,0h594.533C617.403,0,620.5,0,624,0V94z"/>
	<path fill="#A5B7BF" d="M595.732,38.601c0.795,0.775,8.554,8.922,8.554,8.922c0.424,0.414,0.636,0.956,0.636,1.498
		c0,0.541-0.212,1.083-0.636,1.497c0,0-7.759,8.147-8.554,8.921c-0.795,0.775-2.221,0.83-3.07,0c-0.85-0.826-0.915-1.979,0-2.992
		l7.12-7.426l-7.118-7.426c-0.914-1.014-0.849-2.168,0-2.995C593.512,37.774,594.94,37.826,595.732,38.601z"/>
	<path fill="#7E7E7E" d="M69.5,44.834l-8.203-13.125c-1.196-1.917-3.3-3.084-5.563-3.084H24.563c-3.624,0-6.563,2.938-6.563,6.563
		v26.25C18,65.062,20.938,68,24.563,68h31.172c2.263,0,4.364-1.166,5.563-3.086L69.5,51.789
		C70.833,49.664,70.833,46.963,69.5,44.834z M66.719,50.051l-8.203,13.128c-0.603,0.965-1.644,1.54-2.781,1.54H24.563
		c-1.81,0-3.281-1.473-3.281-3.281v-26.25c0-1.81,1.472-3.281,3.281-3.281h31.172c1.138,0,2.179,0.578,2.781,1.541l8.203,13.125
		C67.379,47.63,67.379,48.995,66.719,50.051z M55.734,43.391c-2.721,0-4.922,2.204-4.922,4.922c0,2.719,2.201,4.922,4.922,4.922
		c2.717,0,4.922-2.205,4.922-4.922C60.656,45.594,58.451,43.391,55.734,43.391z M55.734,51.596c-1.813,0-3.281-1.471-3.281-3.281
		c0-1.812,1.468-3.282,3.281-3.282c1.811,0,3.281,1.47,3.281,3.282C59.016,50.125,57.545,51.596,55.734,51.596z"/>
</g>
<g id="Layer_3">
</g>
</svg>
