<?xml version="1.0" encoding="utf-8"?>
<!-- Generator: Adobe Illustrator 16.0.0, SVG Export Plug-In . SVG Version: 6.00 Build 0)  -->
<!DOCTYPE svg PUBLIC "-//W3C//DTD SVG 1.1//EN" "http://www.w3.org/Graphics/SVG/1.1/DTD/svg11.dtd">
<svg version="1.1" id="Layer_1" xmlns="http://www.w3.org/2000/svg" xmlns:xlink="http://www.w3.org/1999/xlink" x="0px" y="0px"
	 width="37.66px" height="33.07px" viewBox="0 0 37.66 33.07" enable-background="new 0 0 37.66 33.07" xml:space="preserve">
<path fill="#FFFFFF" d="M16.481-0.001c8.965,0,16.256,7.185,16.473,16.123h4.957l-7.418,8.273l-7.42-8.273h5.762
	C28.617,9.465,23.174,4.134,16.482,4.134C9.653,4.134,4.12,9.686,4.12,16.536s5.533,12.401,12.362,12.401
	c2.738,0,5.267-0.896,7.315-2.406l2.834,3.031c-2.797,2.196-6.319,3.508-10.149,3.508C7.379,33.07,0,25.666,0,16.534
	C0,7.401,7.378-0.002,16.481-0.001L16.481-0.001z"/>
</svg>
