<?xml version="1.0" encoding="utf-8"?>
<!-- Generator: Adobe Illustrator 16.0.0, SVG Export Plug-In . SVG Version: 6.00 Build 0)  -->
<!DOCTYPE svg PUBLIC "-//W3C//DTD SVG 1.1//EN" "http://www.w3.org/Graphics/SVG/1.1/DTD/svg11.dtd">
<svg version="1.1" id="Layer_1" xmlns="http://www.w3.org/2000/svg" xmlns:xlink="http://www.w3.org/1999/xlink" x="0px" y="0px"
	 width="37.91px" height="33.07px" viewBox="0 0 37.91 33.07" enable-background="new 0 0 37.91 33.07" xml:space="preserve">
<g id="Layer_2">
	<rect x="0.09" y="0" opacity="0.76" fill="#C8C8C8" enable-background="new    " width="37.82" height="33"/>
</g>
<path fill="#FFFFFF" d="M16.48-0.001c8.965,0,16.256,7.186,16.473,16.123h4.957l-7.418,8.273l-7.42-8.273h5.763
	c-0.22-6.657-5.662-11.988-12.353-11.988c-6.83,0-12.363,5.553-12.363,12.402c0,6.853,5.533,12.401,12.363,12.401
	c2.736,0,5.267-0.896,7.314-2.406l2.834,3.031c-2.797,2.195-6.318,3.508-10.148,3.508C7.378,33.07,0,25.666,0,16.534
	C-0.001,7.401,7.377-0.002,16.48-0.001L16.48-0.001z"/>
</svg>
