<?xml version="1.0" encoding="utf-8"?>
<!-- Generator: Adobe Illustrator 16.0.0, SVG Export Plug-In . SVG Version: 6.00 Build 0)  -->
<!DOCTYPE svg PUBLIC "-//W3C//DTD SVG 1.1//EN" "http://www.w3.org/Graphics/SVG/1.1/DTD/svg11.dtd">
<svg version="1.1" id="Layer_1" xmlns="http://www.w3.org/2000/svg" xmlns:xlink="http://www.w3.org/1999/xlink" x="0px" y="0px"
	 width="624px" height="94px" viewBox="0 0 624 94" enable-background="new 0 0 624 94" xml:space="preserve">
<path fill="#FFFFFF" enable-background="new    " d="M624,94c-4,0-6.597-0.176-14.732-0.176H14.733c-8.137,0-10.733,0-14.733,0V0
	c6.597,0,6.597,0,14.733,0h594.533C617.403,0,620.5,0,624,0V94z"/>
<path fill="#A5B7BF" d="M595.732,38.601c0.795,0.775,8.554,8.922,8.554,8.922c0.425,0.414,0.637,0.955,0.637,1.498
	c0,0.541-0.212,1.082-0.637,1.496c0,0-7.759,8.147-8.554,8.922s-2.221,0.83-3.07,0c-0.85-0.826-0.915-1.979,0-2.992l7.12-7.426
	l-7.118-7.426c-0.914-1.014-0.849-2.168,0-2.995C593.512,37.774,594.94,37.826,595.732,38.601z"/>
<circle fill="#00A0FF" stroke="#FFFFFF" stroke-width="3" stroke-miterlimit="10" cx="43.5" cy="47.499" r="23"/>
<path fill="#FFFFFF" d="M54.82,39.062c-0.234-2.288-0.607-4.07-1.197-4.771c-2.432-2.879-19.468-3.09-21.402,0
	c-0.474,0.757-0.806,2.533-1.028,4.774c-0.718,0.084-1.278,0.689-1.278,1.43v2.803c0,0.624,0.396,1.149,0.946,1.354
	c-0.13,4.414-0.024,9.021,0.172,11.312c0,1.768,1.188,1.475,1.188,1.475h1.114v1.909c0,0.757,0.779,1.37,1.741,1.37
	c0.963,0,1.743-0.613,1.743-1.37v-1.909h12.955v1.909c0,0.757,0.779,1.37,1.742,1.37c0.962,0,1.741-0.613,1.741-1.37v-1.909h0.366
	c0,0,1.398,0.191,1.488-0.641c0-2.285,0.144-7.348,0.025-12.127c0.586-0.184,1.014-0.723,1.014-1.374v-2.803
	C56.15,39.737,55.563,39.122,54.82,39.062z M36.381,34.702h13.082v1.979H36.381V34.702z M36.568,55.186
	c-1.027,0-1.859-0.833-1.859-1.86c0-1.026,0.832-1.858,1.859-1.858c1.026,0,1.859,0.832,1.859,1.858
	C38.427,54.353,37.595,55.186,36.568,55.186z M49.392,55.186c-1.026,0-1.86-0.833-1.86-1.86c0-1.026,0.833-1.858,1.86-1.858
	s1.859,0.832,1.859,1.858C51.252,54.353,50.42,55.186,49.392,55.186z M51.756,47.047H34.087v-9.268h17.669V47.047z"/>
</svg>
