<?xml version="1.0" encoding="utf-8"?>
<!-- Generator: Adobe Illustrator 16.0.0, SVG Export Plug-In . SVG Version: 6.00 Build 0)  -->
<!DOCTYPE svg PUBLIC "-//W3C//DTD SVG 1.1//EN" "http://www.w3.org/Graphics/SVG/1.1/DTD/svg11.dtd">
<svg version="1.1" id="Layer_1" xmlns="http://www.w3.org/2000/svg" xmlns:xlink="http://www.w3.org/1999/xlink" x="0px" y="0px"
	 width="624px" height="94px" viewBox="0 0 624 94" enable-background="new 0 0 624 94" xml:space="preserve">
<path fill="#FFFFFF" enable-background="new    " d="M624,94c-4,0-6.597-0.176-14.732-0.176H14.733c-8.137,0-10.733,0-14.733,0V0
	c6.597,0,6.597,0,14.733,0h594.533C617.403,0,620.5,0,624,0V94z"/>
<path fill="#A5B7BF" d="M595.732,38.601c0.795,0.775,8.554,8.922,8.554,8.922c0.425,0.414,0.637,0.955,0.637,1.498
	c0,0.541-0.212,1.082-0.637,1.496c0,0-7.759,8.147-8.554,8.922s-2.221,0.83-3.07,0c-0.85-0.826-0.915-1.979,0-2.992l7.12-7.426
	l-7.118-7.426c-0.914-1.014-0.849-2.168,0-2.995C593.512,37.774,594.94,37.826,595.732,38.601z"/>
<path fill="#7D7D7D" d="M55.334,29.001H32.668c-3.117,0-5.667,2.55-5.667,5.667v22.665c0,3.119,2.55,5.667,5.667,5.667h22.666
	C58.451,63,61,60.452,61,57.333V34.668C61,31.551,58.451,29.001,55.334,29.001z M54.826,40.351c0.011,0.244,0.016,0.489,0.016,0.735
	c0,7.511-5.617,16.172-15.893,16.172c-3.154,0-6.091-0.94-8.563-2.554c0.438,0.053,0.882,0.078,1.332,0.078
	c2.617,0,5.026-0.908,6.937-2.432c-2.444-0.047-4.507-1.689-5.218-3.947c0.341,0.066,0.691,0.102,1.051,0.102
	c0.509,0,1.003-0.07,1.472-0.199c-2.555-0.521-4.481-2.819-4.481-5.573c0-0.024,0-0.048,0.001-0.071
	c0.753,0.426,1.614,0.681,2.53,0.711c-1.499-1.019-2.485-2.759-2.485-4.731c0-1.042,0.275-2.018,0.756-2.857
	c2.755,3.439,6.871,5.702,11.513,5.939c-0.095-0.416-0.145-0.85-0.145-1.295c0-3.139,2.501-5.684,5.585-5.684
	c1.607,0,3.06,0.69,4.078,1.795c1.271-0.255,2.467-0.728,3.547-1.379c-0.418,1.327-1.303,2.441-2.457,3.145
	c1.131-0.137,2.207-0.443,3.209-0.895c-0.75,1.14-1.696,2.141-2.787,2.942L54.826,40.351z"/>
</svg>
