<?xml version="1.0" encoding="utf-8"?>
<!-- Generator: Adobe Illustrator 15.0.0, SVG Export Plug-In . SVG Version: 6.00 Build 0)  -->
<!DOCTYPE svg PUBLIC "-//W3C//DTD SVG 1.1//EN" "http://www.w3.org/Graphics/SVG/1.1/DTD/svg11.dtd">
<svg version="1.1" id="Layer_1" xmlns="http://www.w3.org/2000/svg" xmlns:xlink="http://www.w3.org/1999/xlink" x="0px" y="0px"
	 width="49.5px" height="49.5px" viewBox="0 -17.5 49.5 49.5" enable-background="new 0 -17.5 49.5 49.5" xml:space="preserve">
<path fill="#7D7D7D" d="M0,32h24.75v-49.5H0V32z M15.469-11.312h6.188v6.188h-6.188V-11.312z M15.469,1.062h6.188V7.25h-6.188V1.062
	z M15.469,13.438h6.188v6.188h-6.188V13.438z M3.094-11.312h6.188v6.188H3.094V-11.312z M3.094,1.062h6.188V7.25H3.094V1.062z
	 M3.094,13.438h6.188v6.188H3.094V13.438z M27.844-2.031H49.5v3.094H27.844V-2.031z M27.844,32h6.188V19.625h9.281V32H49.5V4.156
	H27.844V32z"/>
</svg>
