<?xml version="1.0" encoding="utf-8"?>
<!-- Generator: Adobe Illustrator 16.0.0, SVG Export Plug-In . SVG Version: 6.00 Build 0)  -->
<!DOCTYPE svg PUBLIC "-//W3C//DTD SVG 1.1//EN" "http://www.w3.org/Graphics/SVG/1.1/DTD/svg11.dtd">
<svg version="1.1" id="Layer_2" xmlns="http://www.w3.org/2000/svg" xmlns:xlink="http://www.w3.org/1999/xlink" x="0px" y="0px"
	 width="624px" height="94px" viewBox="0 0 624 94" enable-background="new 0 0 624 94" xml:space="preserve">
<path opacity="0.76" fill="#FFFFFF" enable-background="new    " d="M0,0c4,0,6.597,0.176,14.732,0.176h594.534
	c8.138,0,10.733,0,14.733,0v81.846C624,88.639,617.403,94,609.266,94H14.733C6.596,94,0,88.639,0,82.021V0z"/>
<path fill="#A5B7BF" d="M595.732,38.601c0.795,0.775,8.554,8.922,8.554,8.922c0.425,0.414,0.637,0.955,0.637,1.498
	c0,0.541-0.212,1.082-0.637,1.496c0,0-7.759,8.146-8.554,8.922c-0.796,0.774-2.222,0.83-3.07,0c-0.85-0.826-0.915-1.979,0-2.992
	l7.12-7.426l-7.118-7.426c-0.914-1.014-0.849-2.168,0-2.995C593.512,37.774,594.94,37.826,595.732,38.601z"/>
</svg>
