<?xml version="1.0" encoding="utf-8"?>
<!-- Generator: Adobe Illustrator 16.0.0, SVG Export Plug-In . SVG Version: 6.00 Build 0)  -->
<!DOCTYPE svg PUBLIC "-//W3C//DTD SVG 1.1//EN" "http://www.w3.org/Graphics/SVG/1.1/DTD/svg11.dtd">
<svg version="1.1" id="Layer_1" xmlns="http://www.w3.org/2000/svg" xmlns:xlink="http://www.w3.org/1999/xlink" x="0px" y="0px"
	 width="589px" height="83px" viewBox="0 0 589 83" enable-background="new 0 0 589 83" xml:space="preserve">
<rect fill="#FFFFFF" width="588.313" height="83"/>
<path fill="#7E7E7E" d="M64.579,56.603l-9.056-9.055c1.365-2.245,2.152-4.877,2.152-7.696c0-8.185-7.097-15.281-15.284-15.281
	c-8.185,0-14.822,6.639-14.822,14.823c0,8.189,7.094,15.283,15.281,15.283c2.723,0,5.271-0.737,7.465-2.02l9.104,9.104
	c0.894,0.891,2.336,0.891,3.226,0l2.26-2.257C65.793,58.616,65.468,57.493,64.579,56.603L64.579,56.603z M32.133,39.392
	c0-5.667,4.593-10.262,10.26-10.262c5.668,0,10.72,5.052,10.72,10.721c0,5.67-4.592,10.262-10.262,10.262
	C37.182,50.111,32.133,45.061,32.133,39.392z"/>
</svg>
