<?xml version="1.0" encoding="utf-8"?>
<!-- Generator: Adobe Illustrator 16.0.0, SVG Export Plug-In . SVG Version: 6.00 Build 0)  -->
<!DOCTYPE svg PUBLIC "-//W3C//DTD SVG 1.1//EN" "http://www.w3.org/Graphics/SVG/1.1/DTD/svg11.dtd">
<svg version="1.1" id="Layer_1" xmlns="http://www.w3.org/2000/svg" xmlns:xlink="http://www.w3.org/1999/xlink" x="0px" y="0px"
	 width="624px" height="94px" viewBox="0 0 624 94" enable-background="new 0 0 624 94" xml:space="preserve">
<path opacity="0.76" fill="#C8C8C8" enable-background="new    " d="M624,94c-4,0-6.597-0.176-14.733-0.176H14.733
	c-8.137,0-10.733,0-14.733,0V0c6.596,0,6.596,0,14.733,0h594.533C617.403,0,620.5,0,624,0V94z"/>
<path fill="#A5B7BF" d="M595.732,38.601c0.795,0.775,8.554,8.922,8.554,8.922c0.424,0.414,0.636,0.955,0.636,1.498
	c0,0.541-0.212,1.082-0.636,1.496c0,0-7.759,8.147-8.554,8.922s-2.222,0.83-3.07,0c-0.85-0.826-0.915-1.979,0-2.992l7.12-7.426
	l-7.118-7.426c-0.914-1.014-0.849-2.168,0-2.995C593.512,37.774,594.94,37.826,595.732,38.601z"/>
</svg>
