<?xml version="1.0" encoding="utf-8"?>
<!-- Generator: Adobe Illustrator 15.0.0, SVG Export Plug-In . SVG Version: 6.00 Build 0)  -->
<!DOCTYPE svg PUBLIC "-//W3C//DTD SVG 1.1//EN" "http://www.w3.org/Graphics/SVG/1.1/DTD/svg11.dtd">
<svg version="1.1" id="Layer_1" xmlns="http://www.w3.org/2000/svg" xmlns:xlink="http://www.w3.org/1999/xlink" x="0px" y="0px"
	 width="37.86px" height="37.86px" viewBox="3.57 -7.429 37.86 37.86" enable-background="new 3.57 -7.429 37.86 37.86"
	 xml:space="preserve">
<path fill="#7D7D7D" d="M40.579,24.603l-9.055-9.055c1.365-2.245,2.152-4.877,2.152-7.696c0-8.185-7.097-15.281-15.284-15.281
	C10.207-7.429,3.57-0.791,3.57,7.394c0,8.189,7.093,15.283,15.281,15.283c2.722,0,5.271-0.737,7.465-2.02l9.103,9.105
	c0.894,0.891,2.336,0.891,3.226,0l2.26-2.257C41.793,26.616,41.468,25.493,40.579,24.603L40.579,24.603z M8.133,7.392
	c0-5.667,4.593-10.262,10.26-10.262c5.668,0,10.72,5.052,10.72,10.721c0,5.67-4.592,10.262-10.262,10.262
	C13.182,18.112,8.133,13.061,8.133,7.392z"/>
</svg>
