<?xml version="1.0" encoding="utf-8"?>
<!-- Generator: Adobe Illustrator 15.0.0, SVG Export Plug-In . SVG Version: 6.00 Build 0)  -->
<!DOCTYPE svg PUBLIC "-//W3C//DTD SVG 1.1//EN" "http://www.w3.org/Graphics/SVG/1.1/DTD/svg11.dtd">
<svg version="1.1" id="Layer_1" xmlns="http://www.w3.org/2000/svg" xmlns:xlink="http://www.w3.org/1999/xlink" x="0px" y="0px"
	 width="46.5px" height="46.5px" viewBox="0 -14.5 46.5 46.5" enable-background="new 0 -14.5 46.5 46.5" xml:space="preserve">
<path fill="#7D7D7D" d="M36.328-14.5c-2.982,0-5.327,2.049-7.01,5.211l-0.031-0.017c-2.444,4.785-6.082,7.884-10.068,7.884H5.812
	C2.553-1.422,0,1.771,0,5.844c0,4.076,2.553,7.266,5.812,7.266c1.603,0.006,2.899,1.303,2.899,2.906v13.078
	C8.712,30.7,10.014,32,11.618,32h5.812c1.604,0,2.906-1.3,2.906-2.906v-1.453c0-1.453-1.453-2.104-1.453-2.906V14.562
	c0-0.034,0.023-0.057,0.026-0.091c0.014-0.207,0.07-0.399,0.162-0.573c0.026-0.048,0.054-0.085,0.086-0.128
	c0.116-0.173,0.264-0.315,0.441-0.426c0.009-0.005,0.012-0.014,0.021-0.02c0.006,0,0.01-0.006,0.017-0.006
	c0.115-0.065,0.255-0.081,0.386-0.116c3.668,0.389,6.988,3.349,9.267,7.808l0.037-0.019c1.684,3.152,4.021,5.195,7.002,5.195
	c6.678,0,10.172-10.234,10.172-20.344S43.006-14.5,36.328-14.5z M29.062,5.844c0-1.507,0.088-2.963,0.238-4.359h4.121
	c1.604,0,2.906,1.953,2.906,4.359c0,2.41-1.303,4.359-2.906,4.359h-4.121C29.15,8.807,29.062,7.354,29.062,5.844z M2.906,5.844
	c0-2.407,1.302-4.359,2.906-4.359h10.192c-0.901,1.06-1.474,2.597-1.474,4.359c0,1.765,0.573,3.303,1.474,4.359H5.812
	C4.208,10.203,2.906,8.253,2.906,5.844z M17.431,29.094h-5.812V16.016c0-1.059-0.284-2.049-0.781-2.906h1.014v0.017h4.371
	c-0.155,0.453-0.245,0.931-0.245,1.436v10.172c0,1.399,0.781,2.33,1.248,2.887c0.063,0.076,0.14,0.154,0.205,0.241V29.094z
	 M19.219,10.22h-0.328v-0.017c-1.604,0-2.906-1.95-2.906-4.359c0-2.407,1.302-4.359,2.906-4.359h0.328
	c2.74,0,5.307-1.079,7.564-2.933c-0.414,2.339-0.627,4.817-0.627,7.292c0,2.483,0.213,4.97,0.63,7.311
	C24.527,11.299,21.959,10.22,19.219,10.22z M36.328,23.281c-2.932,0-5.449-4.172-6.599-10.172h3.692c3.258,0,5.812-3.19,5.812-7.266
	c0-4.073-2.555-7.266-5.812-7.266h-3.692c1.149-5.997,3.667-10.172,6.599-10.172c4.013,0,7.266,7.808,7.266,17.438
	S40.341,23.281,36.328,23.281z"/>
</svg>
